<?xml version="1.0" standalone="no"?>
<!DOCTYPE svg PUBLIC "-//W3C//DTD SVG 20010904//EN"
 "http://www.w3.org/TR/2001/REC-SVG-20010904/DTD/svg10.dtd">
<svg version="1.0" xmlns="http://www.w3.org/2000/svg"
 width="700.000000pt" height="700.000000pt" viewBox="0 0 700.000000 700.000000"
 preserveAspectRatio="xMidYMid meet">
<metadata>
Created by potrace 1.14, written by Peter Selinger 2001-2017
</metadata>
<g transform="translate(0.000000,700.000000) scale(0.100000,-0.100000)"
fill="#000000" stroke="none">
<path d="M2370 5435 l0 -125 85 0 85 0 0 -360 0 -360 145 0 145 0 2 358 3 357
83 3 82 3 0 124 0 125 -315 0 -315 0 0 -125z"/>
<path d="M3120 5075 l0 -485 145 0 145 0 0 185 0 185 65 0 65 0 0 -185 0 -185
150 0 150 0 0 485 0 485 -150 0 -150 0 0 -165 0 -165 -65 0 -65 0 0 165 0 165
-145 0 -145 0 0 -485z"/>
<path d="M4020 5075 l0 -485 270 0 271 0 -3 133 -3 132 -128 3 -128 3 3 47 3
47 108 3 107 3 0 119 0 120 -111 0 -110 0 3 48 3 47 118 3 117 3 0 129 0 130
-260 0 -260 0 0 -485z"/>
<path d="M1267 4209 c-139 -33 -260 -174 -296 -347 -16 -75 -13 -246 4 -321
33 -139 121 -257 232 -312 41 -20 63 -24 153 -24 92 0 112 3 160 26 66 31 124
83 117 104 -7 18 -148 205 -154 205 -3 0 -18 -11 -35 -25 -60 -51 -131 -23
-165 63 -26 69 -25 211 4 274 36 79 107 100 166 48 l34 -29 76 109 c46 65 74
115 71 124 -10 27 -108 85 -169 101 -65 16 -139 18 -198 4z"/>
<path d="M2002 4205 c-64 -18 -147 -71 -183 -118 -40 -50 -78 -130 -94 -199
-19 -82 -19 -274 0 -356 47 -201 178 -320 361 -330 191 -10 328 88 395 284 21
61 24 87 24 224 0 135 -3 163 -23 221 -61 178 -182 276 -350 285 -50 3 -96 -1
-130 -11z m165 -311 c34 -37 46 -98 41 -209 -4 -111 -22 -157 -71 -185 -24
-13 -30 -13 -54 0 -49 28 -67 74 -71 185 -5 119 8 177 49 218 35 34 70 32 106
-9z"/>
<path d="M5683 4210 c-107 -22 -197 -90 -236 -178 -11 -26 -22 -76 -25 -113
-9 -134 47 -234 170 -299 122 -64 150 -97 112 -134 -23 -24 -64 -19 -128 13
l-57 29 -14 -22 c-104 -163 -124 -200 -114 -212 19 -23 128 -72 187 -85 80
-16 190 -6 254 24 72 33 109 66 143 129 25 45 30 67 33 145 4 84 2 98 -21 145
-33 68 -85 117 -172 164 -88 47 -105 61 -105 90 0 48 62 57 129 19 24 -14 45
-24 46 -23 1 2 34 51 74 110 l71 108 -39 25 c-85 57 -216 84 -308 65z"/>
<path d="M2660 3706 l0 -486 158 0 c267 1 362 23 454 109 97 88 132 205 126
406 -7 206 -60 322 -178 393 -85 51 -109 55 -342 59 l-218 5 0 -486z m365 212
c15 -7 36 -33 51 -65 24 -49 26 -60 22 -160 -5 -143 -29 -188 -110 -208 l-28
-7 0 226 c0 218 1 226 20 226 10 0 31 -5 45 -12z"/>
<path d="M3550 3705 l0 -485 265 0 265 0 0 135 0 135 -125 0 -125 0 0 50 0 50
105 0 105 0 0 120 0 120 -105 0 -105 0 0 50 0 50 120 0 120 0 0 130 0 130
-260 0 -260 0 0 -485z"/>
<path d="M4230 3706 l0 -486 140 0 140 0 0 175 c0 145 2 175 14 175 8 0 17 -8
20 -17 3 -10 23 -81 46 -158 23 -77 43 -148 46 -157 5 -16 21 -18 160 -18 85
0 154 4 154 9 0 5 -33 97 -74 206 l-74 197 38 38 c48 48 73 122 73 215 0 133
-49 222 -151 272 -57 28 -57 28 -294 31 l-238 4 0 -486z m374 212 c18 -26 21
-80 6 -108 -10 -19 -76 -44 -92 -34 -4 3 -8 41 -8 85 l0 79 39 0 c30 0 44 -6
55 -22z"/>
<path d="M5080 4000 l0 -190 90 0 90 0 0 190 0 190 -90 0 -90 0 0 -190z"/>
<path d="M1123 2836 c-126 -41 -226 -159 -269 -317 -28 -102 -24 -283 9 -381
44 -137 117 -226 226 -277 48 -22 69 -26 151 -26 83 0 103 4 156 28 70 33 131
88 118 109 -4 7 -41 57 -82 110 l-75 98 -25 -25 c-54 -54 -125 -38 -163 37
-30 58 -38 184 -15 261 29 101 109 137 176 80 l32 -27 19 25 c10 13 46 63 79
110 l60 87 -33 32 c-55 56 -127 82 -231 86 -59 3 -106 -1 -133 -10z"/>
<path d="M1765 2798 c-160 -680 -215 -915 -215 -925 0 -10 36 -13 145 -13 163
0 144 -10 163 85 l8 40 84 0 84 0 12 -58 c6 -32 14 -60 16 -63 3 -2 73 -3 155
-2 l150 3 -107 450 c-58 248 -110 462 -113 478 l-7 27 -185 0 c-183 0 -185 0
-190 -22z m209 -410 c9 -73 20 -141 22 -150 5 -16 -2 -18 -47 -18 -51 0 -51 0
-46 28 3 15 13 82 23 150 10 67 20 122 24 122 3 0 14 -60 24 -132z"/>
<path d="M2480 2340 l0 -480 131 0 131 0 -6 228 -6 227 77 -227 78 -228 157 0
158 0 0 480 0 480 -131 0 -132 0 8 -232 c4 -128 4 -230 0 -227 -3 4 -39 108
-78 230 l-73 224 -157 3 -157 3 0 -481z"/>
<path d="M3310 2695 l0 -125 85 0 85 0 0 -355 0 -355 145 0 145 0 0 355 0 355
85 0 85 0 0 125 0 125 -315 0 -315 0 0 -125z"/>
<path d="M4050 2340 l0 -480 150 0 150 0 0 480 0 480 -150 0 -150 0 0 -480z"/>
<path d="M4540 2340 l0 -480 132 0 131 0 -6 228 c-3 125 -3 220 0 212 4 -8 39
-109 79 -225 l72 -210 156 -3 156 -3 0 481 0 480 -130 0 -129 0 5 -232 c3
-138 2 -227 -4 -218 -4 8 -40 113 -78 233 l-69 217 -157 0 -158 0 0 -480z"/>
<path d="M5585 2798 c-3 -13 -52 -223 -110 -467 -58 -245 -105 -451 -105 -458
0 -10 32 -13 145 -13 163 0 144 -10 163 85 l8 40 84 0 84 0 12 -58 c6 -32 14
-60 16 -63 3 -2 73 -3 155 -2 l150 3 -107 450 c-58 248 -110 462 -113 478 l-7
27 -185 0 c-183 0 -185 0 -190 -22z m209 -410 c9 -73 20 -141 22 -150 5 -16
-2 -18 -47 -18 -51 0 -51 0 -46 28 3 15 13 82 23 150 10 67 20 122 24 122 3 0
14 -60 24 -132z"/>
</g>
</svg>
