<svg xmlns="http://www.w3.org/2000/svg" width="512" height="512" viewBox="0 0 512 512">
    <rect fill="#ff1744" width="512" height="512"/>
    <path fill="#000000" d="M207.25 176.2h-21.4v-52.4h-12.5v-18.4h46.4v18.4h-12.5v52.4zm51.9-27.1h-9.6v27.1h-21.6v-70.8h21.6v24.2h9.6v-24.2h21.6v70.8h-21.6v-27.1zm35-43.7h37.8v19.1h-17.1v7.1h15.5v17.7h-15.5v7.4h18.4v19.5h-39.1v-70.8zM69.9 240.8c0-5.67.73-10.8 2.2-15.4 1.47-4.6 3.5-8.53 6.1-11.8 2.6-3.27 5.68-5.78 9.25-7.55 3.57-1.77 7.48-2.65 11.75-2.65 2.67 0 5.1.25 7.3.75s4.15 1.19 5.85 2.05c1.7.87 3.2 1.83 4.5 2.9 1.3 1.07 2.42 2.2 3.35 3.4L108.6 229c-.87-1.13-1.83-2.15-2.9-3.05-1.07-.9-2.57-1.35-4.5-1.35-1.4 0-2.65.4-3.75 1.2-1.1.8-2.05 1.92-2.85 3.35-.8 1.44-1.4 3.15-1.8 5.15-.4 2-.6 4.17-.6 6.5s.2 4.47.6 6.4c.4 1.93 1 3.62 1.8 5.05.8 1.44 1.77 2.55 2.9 3.35 1.13.8 2.4 1.2 3.8 1.2 1.6 0 2.98-.45 4.15-1.35 1.17-.9 2.12-1.88 2.85-2.95l12.1 16c-1 1.34-2.17 2.59-3.5 3.75a21.657 21.657 0 0 1-4.55 3.05c-1.7.87-3.63 1.57-5.8 2.1s-4.62.8-7.35.8c-4.27 0-8.18-.9-11.75-2.7-3.57-1.8-6.65-4.35-9.25-7.65-2.6-3.3-4.63-7.23-6.1-11.8-1.47-4.57-2.2-9.65-2.2-15.25zm54.8-.2c0-5.67.68-10.8 2.05-15.4 1.37-4.6 3.33-8.52 5.9-11.75 2.57-3.23 5.68-5.72 9.35-7.45 3.67-1.73 7.77-2.6 12.3-2.6 4.53 0 8.63.87 12.3 2.6s6.78 4.22 9.35 7.45c2.57 3.23 4.53 7.15 5.9 11.75s2.05 9.73 2.05 15.4-.68 10.82-2.05 15.45c-1.37 4.63-3.33 8.58-5.9 11.85-2.57 3.27-5.68 5.8-9.35 7.6-3.67 1.8-7.77 2.7-12.3 2.7-4.53 0-8.63-.9-12.3-2.7-3.67-1.8-6.78-4.33-9.35-7.6-2.57-3.27-4.53-7.21-5.9-11.85-1.37-4.63-2.05-9.78-2.05-15.45zm22 0c0 4.6.62 8.42 1.85 11.45 1.23 3.04 3.15 4.55 5.75 4.55s4.52-1.52 5.75-4.55c1.23-3.03 1.85-6.85 1.85-11.45s-.62-8.38-1.85-11.35c-1.23-2.96-3.15-4.45-5.75-4.45s-4.52 1.48-5.75 4.45c-1.23 2.97-1.85 6.75-1.85 11.35zm47.8 35.6v-70.8h22.8c5.8 0 10.72.88 14.75 2.65 4.03 1.77 7.3 4.22 9.8 7.35 2.5 3.13 4.32 6.88 5.45 11.25S249 235.8 249 241c0 5.13-.57 9.85-1.7 14.15-1.13 4.3-2.95 8-5.45 11.1-2.5 3.1-5.77 5.54-9.8 7.3-4.03 1.77-8.95 2.65-14.75 2.65h-22.8zm32.6-35.2c0-5.27-.83-9.35-2.5-12.25-1.67-2.9-3.97-4.35-6.9-4.35h-1.3v32.8h1.3c2.93 0 5.23-1.45 6.9-4.35 1.67-2.9 2.5-6.85 2.5-11.85zm32.5-35.6h37.8v19.1h-17.1v7.1h15.5v17.7h-15.5v7.4h18.4v19.5h-39.1v-70.8zm72.31 45.4h-1.81v25.4h-20.8v-70.8h26.35c4.07 0 7.63.54 10.67 1.6 3.04 1.07 5.53 2.6 7.46 4.6s3.39 4.42 4.36 7.25 1.45 6.02 1.45 9.55c0 2.4-.27 4.57-.8 6.5-.53 1.94-1.2 3.65-2.01 5.15-.8 1.5-1.71 2.75-2.71 3.75s-2.01 1.73-3.01 2.2l11.33 30.2h-22.97l-7.51-25.4zm-1.81-27.3v12.4h1.8c.6 0 1.27-.08 2-.25.73-.17 1.4-.48 2-.95.6-.47 1.1-1.1 1.5-1.9.4-.8.6-1.83.6-3.1 0-1.33-.18-2.4-.55-3.2-.37-.8-.83-1.43-1.4-1.9s-1.17-.77-1.8-.9a8.78 8.78 0 0 0-1.75-.2h-2.4zm41.4-18.1h13v28.2h-13v-28.2zm43.7 72.6c-2.4 0-4.68-.22-6.85-.65-2.17-.44-4.17-1.02-6-1.75s-3.52-1.57-5.05-2.5c-1.53-.93-2.83-1.87-3.9-2.8l10.4-16.5c1.53 1.27 3.22 2.3 5.05 3.1 1.83.8 3.65 1.2 5.45 1.2 1.13 0 2.08-.28 2.85-.85.77-.56 1.15-1.38 1.15-2.45 0-1.27-.55-2.33-1.65-3.2-1.1-.87-2.82-1.87-5.15-3-2-.93-3.9-1.98-5.7-3.15-1.8-1.17-3.4-2.58-4.8-4.25s-2.52-3.62-3.35-5.85c-.83-2.23-1.25-4.85-1.25-7.85 0-4.33.77-8.02 2.3-11.05 1.53-3.03 3.48-5.5 5.85-7.4 2.37-1.9 5-3.28 7.9-4.15 2.9-.87 5.75-1.3 8.55-1.3 4.27 0 8.08.67 11.45 2 3.37 1.33 6.18 3.07 8.45 5.2l-10.7 16.3c-1.13-1.13-2.47-2.08-4-2.85-1.53-.77-3-1.15-4.4-1.15-1.07 0-2.03.27-2.9.8-.87.54-1.3 1.47-1.3 2.8 0 1.07.45 1.93 1.35 2.6.9.67 2.65 1.63 5.25 2.9 1.47.73 3.1 1.65 4.9 2.75 1.8 1.1 3.5 2.5 5.1 4.2 1.6 1.7 2.95 3.75 4.05 6.15 1.1 2.4 1.65 5.23 1.65 8.5 0 4.27-.7 7.93-2.1 11s-3.27 5.57-5.6 7.5a23.219 23.219 0 0 1-7.95 4.3c-2.97.93-5.99 1.4-9.05 1.4zM60.9 340.8c0-5.67.73-10.8 2.2-15.4 1.47-4.6 3.5-8.53 6.1-11.8 2.6-3.27 5.68-5.78 9.25-7.55 3.57-1.77 7.48-2.65 11.75-2.65 2.67 0 5.1.25 7.3.75s4.15 1.19 5.85 2.05c1.7.87 3.2 1.83 4.5 2.9 1.3 1.07 2.42 2.2 3.35 3.4L99.6 329c-.87-1.13-1.83-2.15-2.9-3.05-1.07-.9-2.57-1.35-4.5-1.35-1.4 0-2.65.4-3.75 1.2-1.1.8-2.05 1.92-2.85 3.35-.8 1.44-1.4 3.15-1.8 5.15-.4 2-.6 4.17-.6 6.5s.2 4.47.6 6.4c.4 1.93 1 3.62 1.8 5.05.8 1.44 1.77 2.55 2.9 3.35 1.13.8 2.4 1.2 3.8 1.2 1.6 0 2.98-.45 4.15-1.35 1.17-.9 2.12-1.88 2.85-2.95l12.1 16c-1 1.34-2.17 2.59-3.5 3.75a21.657 21.657 0 0 1-4.55 3.05c-1.7.87-3.63 1.57-5.8 2.1s-4.62.8-7.35.8c-4.27 0-8.18-.9-11.75-2.7-3.57-1.8-6.65-4.35-9.25-7.65-2.6-3.3-4.63-7.23-6.1-11.8-1.47-4.57-2.2-9.65-2.2-15.25zm87.8 25.6h-12.2l-1.9 9.8h-21.7l16.7-70.8h26.9l16.8 70.8h-22.7l-1.9-9.8zm-9.8-16.8h7.2l-3.3-23h-.4l-3.5 23zm61-6.8h-.3l.8 33.4h-19.3v-70.8h23.1l11.1 34.5h.4l-.6-34.5h18.6v70.8h-22.5l-11.3-33.4zm75.9 33.4h-21.4v-52.4h-12.5v-18.4h46.4v18.4h-12.5v52.4zm20.7-70.8h22v70.8h-22v-70.8zm54.2 37.4h-.3l.8 33.4h-19.3v-70.8H355l11.1 34.5h.4l-.6-34.5h18.6v70.8H362l-11.3-33.4zm77.4 23.6h-12.2l-1.9 9.8h-21.7l16.7-70.8h26.9l16.8 70.8H430l-1.9-9.8zm-9.8-16.8h7.2l-3.3-23h-.4l-3.5 23z"/>
</svg>
